# xmcd
#
# Track frame offsets: 
#        150
#        15411
#        39348
#        71068
#        86884
#        102424
#        161855
#        184118
#        201196
#        215890
#        239064
#        272857
#        285645
#
# Disc length: 4066 seconds
#
# Revision: 4
# Processed by: cddbd v1.5.2PL0 Copyright (c) Steve Scherf et al.
# Submitted via: ExactAudioCopy v1.1
#
DISCID=ca0fe00d
DTITLE=The Pentangle - The Time Has Come 1967-1973 - Disc 2
DYEAR=2007
DGENRE=Folk
TTITLE0=Lord Franklin
TTITLE1=Jack Orion (edit)
TTITLE2=Cruel Sister
TTITLE3=Helping Hand
TTITLE4=John Renbourn - Faro Annie
TTITLE5=Reflection (alt - take 4)
TTITLE6=So Clear (alt - take 11)
TTITLE7=The Snows
TTITLE8=Jump, Baby, Jump
TTITLE9=Bert Jansch - Yarrow
TTITLE10=Tam Lin
TTITLE11=The Best Part Of You
TTITLE12=John Renbourn - Green Willow
EXTD=
EXTT0=
EXTT1=
EXTT2=
EXTT3=
EXTT4=
EXTT5=
EXTT6=
EXTT7=
EXTT8=
EXTT9=
EXTT10=
EXTT11=
EXTT12=
PLAYORDER=
